<svg width="24" height="25" viewBox="0 0 24 25" fill="none" xmlns="http://www.w3.org/2000/svg">
<g id="mdi:password-add">
<path id="Vector" d="M19 13.5C19.34 13.5 19.67 13.54 20 13.59V10.5C20 9.96957 19.7893 9.46086 19.4142 9.08579C19.0391 8.71071 18.5304 8.5 18 8.5H17V6.5C17 3.74 14.76 1.5 12 1.5C9.24 1.5 7 3.74 7 6.5V8.5H6C5.46957 8.5 4.96086 8.71071 4.58579 9.08579C4.21071 9.46086 4 9.96957 4 10.5V20.5C4 21.61 4.89 22.5 6 22.5H13.81C13.3 21.62 13 20.6 13 19.5C13 16.19 15.69 13.5 19 13.5ZM9 6.5C9 4.84 10.34 3.5 12 3.5C13.66 3.5 15 4.84 15 6.5V8.5H9V6.5ZM12 17.5C11.6044 17.5 11.2178 17.3827 10.8889 17.1629C10.56 16.9432 10.3036 16.6308 10.1522 16.2654C10.0009 15.8999 9.96126 15.4978 10.0384 15.1098C10.1156 14.7219 10.3061 14.3655 10.5858 14.0858C10.8655 13.8061 11.2219 13.6156 11.6098 13.5384C11.9978 13.4613 12.3999 13.5009 12.7654 13.6522C13.1308 13.8036 13.4432 14.06 13.6629 14.3889C13.8827 14.7178 14 15.1044 14 15.5C14 16.61 13.11 17.5 12 17.5ZM23 18.5V20.5H20V23.5H18V20.5H15V18.5H18V15.5H20V18.5H23Z" fill="#F2F2FA"/>
</g>
</svg>
