<svg width="24" height="25" viewBox="0 0 24 25" fill="none" xmlns="http://www.w3.org/2000/svg">
<g id="Group">
<path id="Vector" fill-rule="evenodd" clip-rule="evenodd" d="M14.28 2.5C14.6998 2.50011 15.1088 2.63229 15.4493 2.87781C15.7898 3.12333 16.0444 3.46975 16.177 3.868L16.72 5.5H20C20.2652 5.5 20.5196 5.60536 20.7071 5.79289C20.8946 5.98043 21 6.23478 21 6.5C21 6.76522 20.8946 7.01957 20.7071 7.20711C20.5196 7.39464 20.2652 7.5 20 7.5L19.997 7.571L19.13 19.714C19.0759 20.4706 18.7372 21.1786 18.182 21.6956C17.6269 22.2125 16.8965 22.4999 16.138 22.5H7.862C7.10346 22.4999 6.37311 22.2125 5.81797 21.6956C5.26283 21.1786 4.92411 20.4706 4.87 19.714L4.003 7.57C4.00119 7.54671 4.00019 7.52336 4 7.5C3.73478 7.5 3.48043 7.39464 3.29289 7.20711C3.10536 7.01957 3 6.76522 3 6.5C3 6.23478 3.10536 5.98043 3.29289 5.79289C3.48043 5.60536 3.73478 5.5 4 5.5H7.28L7.823 3.868C7.9557 3.46959 8.21043 3.12305 8.5511 2.87752C8.89176 2.63198 9.30107 2.4999 9.721 2.5H14.28ZM9 10.5C8.75507 10.5 8.51866 10.59 8.33563 10.7527C8.15259 10.9155 8.03566 11.1397 8.007 11.383L8 11.5V17.5C8.00028 17.7549 8.09788 18 8.27285 18.1854C8.44782 18.3707 8.68695 18.4822 8.94139 18.4972C9.19584 18.5121 9.44638 18.4293 9.64183 18.2657C9.83729 18.1021 9.9629 17.8701 9.993 17.617L10 17.5V11.5C10 11.2348 9.89464 10.9804 9.70711 10.7929C9.51957 10.6054 9.26522 10.5 9 10.5ZM15 10.5C14.7348 10.5 14.4804 10.6054 14.2929 10.7929C14.1054 10.9804 14 11.2348 14 11.5V17.5C14 17.7652 14.1054 18.0196 14.2929 18.2071C14.4804 18.3946 14.7348 18.5 15 18.5C15.2652 18.5 15.5196 18.3946 15.7071 18.2071C15.8946 18.0196 16 17.7652 16 17.5V11.5C16 11.2348 15.8946 10.9804 15.7071 10.7929C15.5196 10.6054 15.2652 10.5 15 10.5ZM14.28 4.5H9.72L9.387 5.5H14.613L14.28 4.5Z" fill="#FA2020"/>
</g>
</svg>
