<svg width="406" height="335" viewBox="0 0 406 335" fill="none" xmlns="http://www.w3.org/2000/svg">
<g clip-path="url(#clip0_20_636)">
<path d="M169.372 0.993749L19.521 41.5949C2.5474 46.1938 -7.5509 63.7465 -3.03422 80.8L57.7916 310.457C62.3083 327.511 79.7296 337.607 96.7031 333.008L246.554 292.407C263.528 287.808 273.626 270.255 269.11 253.202L208.284 23.5448C203.767 6.49131 186.346 -3.60513 169.372 0.993749Z" fill="url(#paint0_radial_20_636)"/>
<path d="M27.8821 97.0298L23.9242 82.1093L29.1776 80.6882C31.6249 80.0262 33.6799 80.1582 35.3427 81.0846C37.0195 82.007 38.176 83.6676 38.8123 86.0661C39.4486 88.4646 39.2708 90.4937 38.2789 92.1532C37.2973 93.7948 35.5829 94.9466 33.1355 95.6086L27.8821 97.0298ZM29.5879 94.5949L32.5206 93.8016C36.1916 92.8086 37.5293 90.4355 36.5337 86.6825C35.5419 82.9435 33.2104 81.5706 29.5394 82.5637L26.6067 83.357L29.5879 94.5949ZM48.3761 91.69C46.6883 92.1466 45.2338 92.0335 44.0125 91.3507C42.7875 90.6538 41.956 89.48 41.5181 87.8292C41.2373 86.771 41.2013 85.7828 41.4099 84.8644C41.6289 83.9281 42.0582 83.1315 42.698 82.4745C43.3378 81.8176 44.1499 81.3559 45.1345 81.0896C46.5551 80.7053 47.795 80.8614 48.854 81.5578C49.9094 82.2401 50.6484 83.3784 51.0714 84.9727L51.2622 85.6923L43.7092 87.7355C44.4328 89.8382 45.8495 90.6042 47.9593 90.0335C48.5501 89.8737 49.1025 89.626 49.6163 89.2904C50.1444 88.9509 50.6054 88.5011 50.9995 87.9409L52.0255 89.2511C51.6736 89.8 51.1637 90.2933 50.4959 90.7309C49.8282 91.1686 49.1216 91.4883 48.3761 91.69ZM45.6175 82.5694C44.7314 82.8091 44.1011 83.2745 43.7267 83.9655C43.3522 84.6565 43.2303 85.4759 43.3611 86.4233L49.1209 84.8652C48.8241 83.9173 48.3745 83.245 47.7719 82.8485C47.1655 82.4379 46.4473 82.3449 45.6175 82.5694ZM60.4043 88.4362C59.6167 88.6493 58.8736 88.6613 58.1753 88.4721C57.4768 88.283 56.9014 87.9321 56.4489 87.4194L56.9148 89.176L54.8261 89.741L50.8681 74.8206L52.999 74.2442L54.6607 80.5086C54.8205 79.8605 55.1508 79.2873 55.6517 78.7889C56.1667 78.2867 56.804 77.9328 57.5635 77.7273C58.4777 77.48 59.3305 77.4837 60.1216 77.7385C60.9268 77.9895 61.6189 78.4676 62.1981 79.1728C62.7874 79.8602 63.228 80.7542 63.52 81.8547C63.812 82.9552 63.8746 83.9589 63.7082 84.8659C63.5559 85.769 63.1931 86.5325 62.62 87.1563C62.0571 87.7623 61.3185 88.1889 60.4043 88.4362ZM59.4389 86.9281C60.325 86.6884 60.9441 86.1807 61.2961 85.405C61.6622 84.6255 61.6861 83.6362 61.368 82.4368C61.0499 81.2375 60.5412 80.3998 59.842 79.9236C59.1532 79.4295 58.3657 79.3022 57.4796 79.542C56.5935 79.7817 55.9674 80.2913 55.6013 81.0708C55.2456 81.8323 55.2268 82.8127 55.5449 84.0121C55.863 85.2114 56.3666 86.058 57.0554 86.5522C57.7583 87.0425 58.5528 87.1678 59.4389 86.9281ZM63.7272 73.701L63.1377 71.4788L65.6272 70.8053L66.2167 73.0275L63.7272 73.701ZM67.2912 86.369L64.5515 76.0411L66.6824 75.4647L69.4221 85.7926L67.2912 86.369ZM76.8599 83.9847C75.5664 84.3346 74.5149 84.2637 73.7061 83.7718C72.8973 83.2799 72.3263 82.406 71.9932 81.1503L70.6682 76.1557L68.6639 76.6979L68.226 75.0471L70.2303 74.5049L69.405 71.3939L71.5359 70.8174L72.3612 73.9285L75.5472 73.0666L75.9853 74.7174L72.7991 75.5793L74.0792 80.4046C74.2775 81.1523 74.5819 81.6749 74.9925 81.9721C75.4169 82.2656 75.9882 82.3152 76.7056 82.1211C76.93 82.0604 77.143 81.9801 77.3427 81.8807C77.5387 81.7672 77.7329 81.6466 77.9251 81.519L78.6896 83.0361C78.5113 83.2204 78.2422 83.3991 77.8812 83.5724C77.5382 83.7558 77.1975 83.8934 76.8599 83.9847ZM92.6192 79.7216C91.1145 80.1286 89.7451 80.1664 88.5111 79.8349C87.2771 79.5034 86.2212 78.8439 85.3405 77.8572C84.4715 76.8523 83.8292 75.5669 83.4135 74.0008C82.9979 72.4347 82.9204 71.004 83.179 69.7092C83.453 68.4102 84.0418 67.3058 84.9463 66.3958C85.8509 65.4858 87.0555 64.8272 88.5601 64.4202C89.5728 64.1463 90.5586 64.0535 91.5164 64.1422C92.4849 64.2129 93.3432 64.4646 94.0912 64.8973L93.7969 66.8596C92.997 66.456 92.2181 66.2206 91.4622 66.1529C90.7159 66.0675 89.9419 66.1332 89.1402 66.3501C87.5367 66.7838 86.4441 67.6086 85.8613 68.8248C85.2795 70.0408 85.2302 71.5587 85.7132 73.3787C86.1963 75.1987 86.9917 76.4957 88.1015 77.2691C89.2076 78.0285 90.5623 78.1912 92.1657 77.7575C92.9674 77.5406 93.6722 77.2139 94.2799 76.7773C94.8983 76.3226 95.4544 75.7186 95.9472 74.9653L97.1729 76.5164C96.7357 77.2546 96.1171 77.9059 95.3171 78.4701C94.5315 79.0303 93.6319 79.4476 92.6192 79.7216ZM102.919 76.9354C102.201 77.1294 101.524 77.1614 100.887 77.0315C100.249 76.9016 99.6979 76.6424 99.233 76.254C98.7825 75.8617 98.4763 75.3624 98.3153 74.7557C98.113 73.9938 98.1438 73.3428 98.4084 72.8025C98.6855 72.2587 99.2419 71.7679 100.076 71.3308C100.923 70.8899 102.107 70.4637 103.626 70.0528L104.343 69.8588L104.197 69.3085C103.984 68.5043 103.661 67.9716 103.23 67.7101C102.799 67.4487 102.197 67.4226 101.423 67.6319C100.832 67.7917 100.266 68.0432 99.7238 68.3865C99.178 68.7156 98.6459 69.1544 98.1284 69.7027L97.0756 68.377C97.5086 67.8516 98.0966 67.3675 98.8384 66.9248C99.5802 66.4822 100.317 66.1618 101.048 65.9641C102.455 65.5835 103.585 65.6407 104.44 66.1352C105.291 66.6157 105.906 67.5685 106.284 68.9934L107.974 75.3637L105.97 75.9059L105.515 74.1917C105.419 74.8528 105.148 75.425 104.704 75.9081C104.26 76.3912 103.664 76.7338 102.919 76.9354ZM102.936 75.2975C103.696 75.092 104.258 74.6527 104.622 73.9796C104.986 73.3066 105.059 72.5609 104.842 71.7425L104.691 71.1709L103.995 71.3592C102.968 71.6371 102.172 71.9054 101.607 72.164C101.057 72.4187 100.687 72.7003 100.497 73.0086C100.318 73.299 100.283 73.6488 100.391 74.058C100.534 74.5941 100.833 74.9819 101.288 75.2217C101.74 75.4473 102.289 75.4726 102.936 75.2975ZM110.909 74.5699L108.169 64.2418L110.237 63.6825L110.725 65.524C110.934 64.1518 111.864 63.1668 113.514 62.5691L114.199 62.3385L114.829 64.1188L113.576 64.5939C111.754 65.2832 111.075 66.5028 111.539 68.2523L113.061 73.9878L110.909 74.5699ZM122.61 71.6086C121.709 71.8522 120.859 71.8554 120.057 71.6187C119.266 71.3639 118.574 70.8858 117.981 70.1844C117.388 69.4829 116.945 68.582 116.654 67.4812C116.362 66.3807 116.301 65.3841 116.471 64.4913C116.637 63.5843 117 62.8209 117.559 62.2009C118.118 61.5808 118.855 61.1471 119.769 60.8999C120.543 60.6905 121.277 60.6733 121.971 60.8485C122.666 61.0234 123.238 61.3603 123.687 61.8588L122.019 55.5731L124.15 54.9967L128.108 69.9172L126.019 70.4822L125.542 68.6833C125.411 69.384 125.083 69.9945 124.558 70.5145C124.047 71.031 123.397 71.3957 122.61 71.6086ZM122.72 69.8095C123.592 69.5737 124.212 69.0659 124.577 68.2865C124.944 67.5068 124.967 66.5177 124.65 65.3181C124.332 64.1189 123.823 63.2812 123.124 62.805C122.421 62.3146 121.633 62.1876 120.761 62.4234C119.875 62.6631 119.249 63.1728 118.883 63.9522C118.514 64.7174 118.487 65.6998 118.806 66.8991C119.123 68.0986 119.634 68.9432 120.337 69.4336C121.039 69.924 121.834 70.0492 122.72 69.8095Z" fill="#D5D5E0"/>
<path d="M54.357 152.406L53.5501 149.363C58.2612 147.492 59.3974 144.134 58.5645 140.993C57.7142 137.787 55.5069 135.789 50.6749 136.15L46.595 136.447C43.9214 136.645 43.2477 136.476 42.8746 135.069C42.5101 133.695 43.2257 132.835 46.03 132.077C49.2581 131.203 50.4033 131.7 51.0107 133.99L51.1062 134.35L55.9322 133.044L55.8627 132.782C54.8822 129.085 52.2274 126.718 47.6498 127.115L46.8081 123.941L42.2756 125.168L43.0912 128.243C38.4301 130.17 37.2785 133.603 38.0681 136.58C38.9705 139.983 41.2953 141.633 45.66 141.224L49.6899 140.87C52.894 140.564 53.3588 140.999 53.7493 142.471C54.1398 143.944 53.6026 144.685 50.8309 145.435C46.8854 146.503 45.8227 146.054 45.1806 143.633L45.0938 143.305L40.3005 144.602L40.4132 145.028C41.4979 149.118 44.2856 151.063 48.9916 150.491L49.8246 153.632L54.357 152.406ZM79.8084 142.012L78.637 137.595L70.2894 139.854L66.7852 140.873C66.5075 139.826 67.6622 138.777 69.2387 137.473L72.1503 135.143C74.6487 133.099 76.8106 130.445 75.8041 126.65C74.7542 122.691 71.6581 120.373 65.8866 121.935C59.3976 123.69 57.7174 127.897 58.8454 132.15L58.9842 132.674L63.8754 131.35L63.7279 130.794C63.1032 128.439 63.521 127.379 66.684 126.523C69.5861 125.738 70.5377 126.427 70.9542 127.997C71.336 129.437 70.8421 130.342 69.1613 131.779L65.856 134.602C63.2139 136.895 60.813 139.438 61.941 143.691L62.7219 146.636L79.8084 142.012ZM85.6842 145.612C88.4558 144.862 89.6805 143.023 88.9083 140.111L87.2336 133.797L81.1034 135.455L82.6391 141.246L85.2478 140.541L85.4039 141.129C85.6295 141.98 85.3881 142.256 84.7034 142.441L83.2034 142.847L84.0538 146.053L85.6842 145.612ZM100.105 136.871C105.615 135.38 108.549 132.342 107.42 128.089C106.562 124.85 104.167 123.464 100.959 124.016L100.907 123.82C103.689 122.716 104.46 120.614 103.775 118.03C102.733 114.104 99.0741 112.955 93.922 114.349C88.3135 115.866 85.7962 119.423 86.9508 123.774L87.0463 124.134L91.8396 122.837L91.7615 122.543C91.232 120.547 92.0865 119.684 94.9886 118.899C97.2712 118.282 98.6665 118.535 99.1266 120.269C99.5945 122.036 98.9486 122.632 96.9922 123.161L92.9162 124.264L93.9753 128.255L98.573 127.011C100.692 126.438 101.718 126.616 102.29 128.776C102.829 130.804 101.581 131.633 98.9068 132.356C95.4177 133.3 94.5115 132.914 93.9829 130.918L93.8093 130.264L89.0159 131.561L89.206 132.281C90.3605 136.632 93.518 138.653 100.105 136.871ZM128.88 128.734L127.708 124.318L119.36 126.576L115.856 127.595C115.578 126.548 116.733 125.499 118.31 124.195L121.221 121.865C123.72 119.821 125.881 117.167 124.875 113.372C123.825 109.413 120.729 107.095 114.958 108.657C108.469 110.412 106.788 114.619 107.916 118.873L108.055 119.396L112.946 118.073L112.799 117.516C112.174 115.161 112.592 114.101 115.755 113.245C118.657 112.46 119.609 113.149 120.025 114.719C120.407 116.159 119.913 117.064 118.232 118.501L114.927 121.324C112.285 123.617 109.884 126.16 111.012 130.413L111.793 133.358L128.88 128.734ZM140.832 125.851C146.766 124.245 149.636 121.225 148.498 116.939C147.649 113.732 145.112 112.735 142.828 112.687L142.776 112.491C144.735 111.575 145.742 109.444 145.057 106.859C144.137 103.391 140.779 101.67 134.877 103.267C128.975 104.864 126.92 108.05 127.84 111.518C128.525 114.103 130.453 115.44 132.602 115.244L132.654 115.44C130.667 116.644 128.997 118.779 129.847 121.986C130.984 126.271 134.93 127.448 140.832 125.851ZM137.342 112.559C134.505 113.326 133.392 112.821 132.95 111.152C132.508 109.483 133.221 108.484 136.058 107.716C138.862 106.957 139.975 107.463 140.417 109.132C140.859 110.8 140.146 111.8 137.342 112.559ZM139.693 121.425C136.139 122.387 135.09 121.724 134.586 119.826C134.084 117.929 134.673 116.857 138.227 115.896C141.749 114.943 142.822 115.564 143.325 117.462C143.829 119.359 143.215 120.472 139.693 121.425ZM158.316 120.769L156.78 114.978L150.65 116.637L152.186 122.428L158.316 120.769ZM170.139 117.921C176.758 116.13 178.483 112.227 177.295 107.744C176.14 103.393 172.845 101.374 168.019 102.68C165.051 103.483 163.402 104.911 162.763 105.925L162.632 105.961L161.725 101.087L173.431 97.9193L172.26 93.5022L156.217 97.8433L158.792 110.191L163.285 109.606C163.89 108.987 165.305 107.868 167.49 107.276C170.555 106.447 171.937 106.915 172.545 109.205C173.134 111.43 172.275 112.539 169.178 113.377C166.275 114.162 164.832 113.992 164.407 112.389L164.338 112.127L159.48 113.441L159.548 113.703C160.625 117.76 164.237 119.518 170.139 117.921ZM192.322 111.918C198.583 110.224 200.924 104.822 199.111 97.9838C197.306 91.1785 192.595 87.6492 186.334 89.3432C180.041 91.0461 177.709 96.4812 179.513 103.287C181.327 110.125 186.029 113.621 192.322 111.918ZM191.064 107.174C187.705 108.083 186.11 107.077 184.731 101.875C183.351 96.6726 184.235 94.996 187.593 94.0872C190.919 93.1872 192.514 94.1933 193.893 99.3955C195.273 104.598 194.39 106.274 191.064 107.174Z" fill="#E4E4F0"/>
<mask id="mask0_20_636" style="mask-type:luminance" maskUnits="userSpaceOnUse" x="55" y="201" width="46" height="63">
<path d="M85.99 201.47L55.9689 209.623L70.2496 263.639L100.271 255.487L85.99 201.47Z" fill="white"/>
</mask>
<g mask="url(#mask0_20_636)">
<path d="M71.1351 229.496C71.77 229.324 72.1493 228.666 71.981 228.03C71.812 227.39 71.1593 227.013 70.5245 227.186L68.2173 227.813C67.5824 227.985 66.9297 227.608 66.7607 226.968C66.5917 226.329 66.9718 225.674 67.6066 225.502L69.9139 224.875C71.8185 224.358 73.7827 225.49 74.2882 227.403C74.793 229.313 73.6511 231.292 71.7465 231.81L70.5928 232.123L71.8449 236.861C74.6135 236.687 77.2154 238.479 77.9535 241.272C78.2984 242.577 78.1624 243.892 77.6865 245.061L84.6621 243.166C83.6737 242.395 82.9074 241.325 82.5625 240.02C81.8251 237.23 83.1938 234.356 85.6772 233.103L84.4251 228.365L83.2716 228.679C81.367 229.196 79.4019 228.061 78.8972 226.151C78.3917 224.238 79.5343 222.261 81.4389 221.744L83.7462 221.117C84.381 220.945 85.033 221.319 85.202 221.958C85.371 222.598 84.9916 223.255 84.3568 223.428L82.0496 224.055C81.4147 224.227 81.0354 224.884 81.2044 225.524C81.3726 226.161 82.0254 226.538 82.6602 226.365L91.8836 223.859L91.2729 221.549C90.5979 218.995 87.9868 217.486 85.4392 218.178L64.6907 223.815C62.1432 224.507 60.6261 227.137 61.3011 229.691L61.9117 232.002L71.1351 229.496Z" fill="#E4E4F0"/>
<path d="M86.7361 227.764L92.4975 226.2L93.7179 230.815L87.9565 232.38L86.7361 227.764ZM73.1202 246.308C75.0262 245.79 76.1646 243.814 75.6602 241.907C75.1551 239.996 73.1948 238.864 71.2888 239.382L64.3773 241.259L64.9875 243.566C65.6621 246.117 68.2714 247.625 70.8172 246.933L73.1202 246.308ZM62.5459 234.332L68.3073 232.768L69.5277 237.383L63.7663 238.948L62.5459 234.332ZM87.4174 235.002C85.5114 235.52 84.3722 237.493 84.8774 239.404C85.3818 241.311 87.3428 242.446 89.2488 241.929L91.5517 241.303C94.0976 240.612 95.6137 237.985 94.9391 235.434L94.3289 233.126L87.4174 235.002Z" fill="#E4E4F0"/>
</g>
<path d="M80.9517 294.246L79.8892 293.961L80.5161 291.966L78.5395 292.594L78.2598 291.54L80.3006 291.096L78.7658 289.671L79.5303 288.892L80.9817 290.526L81.4148 288.382L82.481 288.681L81.8398 290.68L83.827 290.034L84.1066 291.088L82.0697 291.546L83.615 292.953L82.8323 293.722L81.3954 292.084L80.9517 294.246ZM87.4419 292.49L86.3795 292.205L87.0064 290.21L85.0298 290.838L84.7501 289.784L86.7909 289.341L85.256 287.915L86.0206 287.136L87.4718 288.77L87.9051 286.626L88.9713 286.925L88.3301 288.924L90.3172 288.278L90.5969 289.332L88.56 289.79L90.1053 291.197L89.3226 291.966L87.8856 290.328L87.4419 292.49ZM93.9322 290.734L92.8697 290.449L93.4965 288.454L91.5199 289.082L91.2403 288.029L93.2811 287.585L91.7463 286.159L92.5108 285.38L93.9621 287.014L94.3953 284.87L95.4615 285.17L94.8204 287.168L96.8074 286.522L97.0871 287.576L95.0501 288.034L96.5955 289.441L95.8128 290.21L94.3759 288.572L93.9322 290.734ZM100.422 288.978L99.36 288.693L99.9868 286.699L98.0102 287.326L97.7305 286.273L99.7713 285.829L98.2366 284.403L99.001 283.624L100.452 285.258L100.886 283.114L101.952 283.414L101.311 285.412L103.298 284.766L103.577 285.82L101.54 286.278L103.086 287.685L102.303 288.454L100.866 286.816L100.422 288.978ZM114.066 290.778C112.905 291.092 111.932 291.087 111.148 290.763C110.372 290.437 109.866 289.826 109.628 288.931C109.462 288.306 109.485 287.733 109.696 287.212C109.914 286.678 110.27 286.257 110.764 285.948C110.23 285.876 109.77 285.671 109.382 285.332C108.991 284.984 108.723 284.536 108.578 283.988C108.353 283.141 108.488 282.393 108.984 281.743C109.48 281.093 110.25 280.627 111.296 280.344C112.351 280.059 113.254 280.072 114.005 280.385C114.756 280.697 115.244 281.277 115.468 282.123C115.614 282.672 115.599 283.196 115.424 283.698C115.258 284.196 114.961 284.607 114.533 284.929C115.123 284.944 115.639 285.129 116.083 285.484C116.524 285.828 116.827 286.313 116.994 286.939C117.231 287.833 117.09 288.619 116.571 289.296C116.061 289.97 115.226 290.464 114.066 290.778ZM112.506 284.905C113.149 284.731 113.608 284.447 113.884 284.052C114.166 283.646 114.237 283.178 114.097 282.649C113.959 282.13 113.668 281.77 113.225 281.57C112.791 281.368 112.252 281.354 111.61 281.528C110.967 281.702 110.508 281.986 110.233 282.38C109.957 282.774 109.888 283.231 110.026 283.75C110.166 284.28 110.455 284.65 110.891 284.862C111.326 285.064 111.864 285.078 112.506 284.905ZM113.751 289.595C115.276 289.182 115.883 288.389 115.571 287.215C115.262 286.051 114.345 285.675 112.82 286.088C112.072 286.29 111.54 286.589 111.224 286.984C110.917 287.376 110.841 287.866 110.997 288.453C111.308 289.627 112.227 290.007 113.751 289.595ZM122.849 288.402C122.197 288.578 121.537 288.648 120.87 288.612C120.21 288.564 119.628 288.407 119.126 288.141L119.323 286.85C120.394 287.323 121.448 287.42 122.484 287.139C123.145 286.96 123.616 286.642 123.895 286.185C124.172 285.718 124.233 285.192 124.077 284.605C123.916 283.999 123.607 283.551 123.15 283.262C122.693 282.973 122.148 282.915 121.515 283.086C120.623 283.327 120.007 283.891 119.667 284.777L118.631 285.057L117.007 278.939L123.049 277.304L123.382 278.559L118.793 279.801L119.647 283.019C120.059 282.402 120.677 281.982 121.502 281.759C122.145 281.585 122.737 281.57 123.278 281.712C123.82 281.854 124.285 282.136 124.674 282.556C125.061 282.967 125.34 283.495 125.511 284.139C125.684 284.794 125.694 285.41 125.539 285.988C125.382 286.556 125.076 287.051 124.623 287.473C124.169 287.895 123.578 288.204 122.849 288.402ZM132.203 285.732L131.655 283.668L127.095 284.902L126.8 283.791L129.761 275.488L130.983 275.157L132.804 282.012L134.285 281.611L134.618 282.866L133.137 283.267L133.684 285.331L132.203 285.732ZM131.322 282.413L130.122 277.896L128.243 283.246L131.322 282.413ZM139.784 283.82C139.103 284.004 138.429 284.078 137.761 284.042C137.091 283.997 136.5 283.842 135.988 283.579L136.2 282.284C136.748 282.528 137.284 282.671 137.81 282.715C138.335 282.758 138.866 282.707 139.403 282.562C140.094 282.375 140.577 282.084 140.853 281.69C141.138 281.293 141.207 280.816 141.059 280.258C140.91 279.7 140.618 279.335 140.183 279.165C139.756 278.991 139.203 278.997 138.522 279.181L136.954 279.605L136.621 278.35L138.045 277.964C138.649 277.801 139.083 277.519 139.346 277.117C139.619 276.713 139.684 276.242 139.542 275.703C139.411 275.213 139.149 274.882 138.754 274.71C138.355 274.529 137.854 274.52 137.25 274.684C136.224 274.961 135.427 275.574 134.856 276.522L134.035 275.523C134.323 275.022 134.732 274.586 135.261 274.217C135.796 273.834 136.386 273.556 137.028 273.383C138.045 273.108 138.899 273.129 139.589 273.448C140.278 273.756 140.733 274.324 140.952 275.151C141.1 275.709 141.087 276.239 140.911 276.74C140.746 277.239 140.439 277.652 139.991 277.979C140.636 277.97 141.181 278.142 141.624 278.496C142.065 278.841 142.37 279.331 142.538 279.966C142.776 280.861 142.647 281.653 142.152 282.344C141.666 283.032 140.877 283.524 139.784 283.82Z" fill="#D5D5E0"/>
<path d="M199.494 255.633L198.743 266.628C198.743 266.628 198.318 265.827 198.098 265.316C194.986 261.459 191.402 260.709 191.402 260.709L197.437 271.347L201.555 270.231L203.491 254.544L199.492 255.628L199.494 255.633ZM206.504 268.89L210.235 267.879L208.749 253.126L204.967 254.151L206.504 268.89Z" fill="#E4E4F0"/>
<path d="M197.699 264.53L194.742 258.459C194.742 258.459 193.805 257.222 192.33 257.621C190.851 258.022 186.554 259.185 186.554 259.185C186.554 259.185 194.517 259.446 197.699 264.53ZM215.109 255.755C214.891 254.936 215.377 254.149 217.237 253.646C218.444 253.319 220.066 253.859 220.066 253.859L219.842 250.577C219.842 250.577 217.892 250.359 216.161 250.828C212.234 251.891 210.724 254.393 211.378 256.861C212.561 261.32 217.579 259.312 218.188 261.606C218.29 261.994 218.23 262.984 216.074 263.568C213.912 264.154 212.268 263.715 212.268 263.715L212.42 266.883C212.42 266.883 214.019 267.334 216.694 266.609C219.37 265.885 222.533 262.798 221.74 259.808C220.786 256.213 215.534 257.359 215.109 255.755ZM229.172 247.615L225.244 248.678L222.862 264.46L226.572 263.456L226.804 261.232L231.478 259.966L232.414 261.874L235.811 260.954L229.172 247.615ZM227.121 258.25L227.739 252.367L230.223 257.41L227.121 258.25Z" fill="#E4E4F0"/>
<path d="M169.628 1.9583L19.7764 42.5596C3.33315 47.0147 -6.44962 64.0189 -2.07406 80.5395L58.7519 310.197C63.1275 326.718 80.0044 336.499 96.4476 332.044L246.299 291.442C262.742 286.987 272.525 269.983 268.15 253.462L207.324 23.8047C202.948 7.28407 186.071 -2.49687 169.628 1.9583Z" stroke="url(#paint1_linear_20_636)" stroke-opacity="0.3" stroke-width="2"/>
<path d="M287.819 1.32701L137.968 41.9282C120.995 46.5271 110.896 64.0798 115.413 81.1332L176.239 310.791C180.755 327.844 198.177 337.94 215.15 333.342L365.001 292.74C381.975 288.141 392.073 270.589 387.557 253.535L326.731 23.878C322.214 6.82457 304.793 -3.27187 287.819 1.32701Z" fill="url(#paint2_linear_20_636)"/>
<path d="M146.329 97.3631L142.371 82.4426L147.625 81.0215C150.072 80.3594 152.128 80.4913 153.79 81.4178C155.467 82.3403 156.624 84.0007 157.259 86.3994C157.896 88.7978 157.718 90.827 156.727 92.4863C155.745 94.128 154.03 95.2799 151.583 95.9419L146.329 97.3631ZM148.036 94.9281L150.968 94.1347C154.639 93.1417 155.977 90.7686 154.981 87.0158C153.99 83.2767 151.658 81.9038 147.987 82.8969L145.054 83.6902L148.036 94.9281ZM166.824 92.0231C165.136 92.4797 163.681 92.3667 162.46 91.6839C161.235 90.9871 160.403 89.8133 159.966 88.1623C159.685 87.1041 159.649 86.1159 159.858 85.1976C160.077 84.2612 160.506 83.4647 161.145 82.8078C161.785 82.1509 162.598 81.689 163.582 81.4228C165.003 81.0384 166.243 81.1944 167.301 81.891C168.357 82.5732 169.096 83.7115 169.519 85.3058L169.709 86.0256L162.156 88.0688C162.881 90.1713 164.297 90.9375 166.407 90.3667C166.998 90.2069 167.55 89.9593 168.064 89.6236C168.591 89.2842 169.053 88.8344 169.447 88.2741L170.473 89.5843C170.121 90.1331 169.612 90.6263 168.944 91.0641C168.276 91.5019 167.569 91.8216 166.824 92.0231ZM164.065 82.9026C163.179 83.1423 162.549 83.6076 162.174 84.2987C161.799 84.9898 161.678 85.8091 161.809 86.7565L167.569 85.1984C167.272 84.2504 166.822 83.5782 166.219 83.1817C165.613 82.7712 164.894 82.6782 164.065 82.9026ZM178.852 88.7695C178.064 88.9824 177.321 88.9945 176.622 88.8054C175.925 88.6161 175.348 88.2654 174.897 87.7525L175.362 89.5093L173.273 90.0743L169.315 75.1539L171.446 74.5774L173.108 80.8419C173.268 80.1938 173.599 79.6204 174.1 79.122C174.614 78.6199 175.252 78.2659 176.011 78.0605C176.925 77.8132 177.778 77.8168 178.57 78.0716C179.374 78.3227 180.066 78.8008 180.645 79.5061C181.235 80.1935 181.675 81.0874 181.968 82.1879C182.26 83.2884 182.322 84.2921 182.156 85.199C182.003 86.1023 181.641 86.8657 181.067 87.4896C180.504 88.0955 179.766 88.522 178.852 88.7695ZM177.886 87.2614C178.772 87.0217 179.392 86.5139 179.744 85.7381C180.11 84.9587 180.134 83.9693 179.816 82.77C179.497 81.5708 178.989 80.7329 178.289 80.2569C177.601 79.7626 176.813 79.6356 175.927 79.8753C175.041 80.115 174.415 80.6244 174.049 81.404C173.694 82.1654 173.674 83.146 173.992 84.3452C174.311 85.5445 174.814 86.3912 175.503 86.8853C176.206 87.3757 177 87.5011 177.886 87.2614ZM182.175 74.0342L181.585 71.8121L184.075 71.1386L184.664 73.3607L182.175 74.0342ZM185.738 86.7023L182.999 76.3742L185.13 75.7978L187.869 86.1259L185.738 86.7023ZM195.308 84.3178C194.014 84.6677 192.962 84.5969 192.154 84.105C191.345 83.6131 190.774 82.7393 190.44 81.4836L189.116 76.4889L187.111 77.0311L186.673 75.3804L188.678 74.8382L187.853 71.727L189.984 71.1505L190.808 74.2618L193.994 73.4L194.432 75.0507L191.247 75.9125L192.526 80.7379C192.725 81.4856 193.03 82.008 193.44 82.3054C193.864 82.5989 194.435 82.6485 195.153 82.4545C195.378 82.3935 195.59 82.3134 195.79 82.214C195.986 82.1005 196.18 81.9799 196.372 81.8523L197.137 83.3694C196.959 83.5535 196.69 83.7322 196.329 83.9054C195.986 84.0889 195.646 84.2264 195.308 84.3178ZM211.066 80.0549C209.562 80.4619 208.192 80.4997 206.958 80.1682C205.725 79.8364 204.668 79.1772 203.789 78.1903C202.919 77.1856 202.276 75.9002 201.861 74.3341C201.446 72.7678 201.367 71.3374 201.627 70.0423C201.9 68.7436 202.489 67.6391 203.393 66.7291C204.298 65.8191 205.503 65.1606 207.007 64.7535C208.02 64.4796 209.006 64.3868 209.964 64.4755C210.932 64.5462 211.79 64.7979 212.538 65.2307L212.245 67.1927C211.444 66.7893 210.666 66.5537 209.909 66.4862C209.163 66.4008 208.389 66.4665 207.587 66.6834C205.984 67.1172 204.891 67.942 204.309 69.1579C203.728 70.3738 203.678 71.8917 204.16 73.712C204.643 75.532 205.44 76.8288 206.55 77.6022C207.656 78.3615 209.01 78.5243 210.614 78.0905C211.415 77.8737 212.12 77.5469 212.728 77.1103C213.345 76.656 213.901 76.0519 214.395 75.2984L215.621 76.8494C215.184 77.5876 214.564 78.2392 213.764 78.8034C212.979 79.3637 212.079 79.781 211.066 80.0549ZM221.366 77.2687C220.649 77.4627 219.971 77.4947 219.334 77.3648C218.697 77.2347 218.145 76.9757 217.681 76.587C217.23 76.195 216.924 75.6954 216.763 75.0887C216.561 74.3269 216.592 73.6759 216.855 73.1358C217.134 72.5918 217.689 72.1013 218.523 71.6641C219.371 71.223 220.554 70.7971 222.073 70.3861L222.79 70.1921L222.644 69.6419C222.431 68.8377 222.108 68.3049 221.677 68.0435C221.246 67.782 220.644 67.7559 219.87 67.9653C219.279 68.1251 218.713 68.3765 218.171 68.7198C217.625 69.0489 217.094 69.4875 216.575 70.036L215.524 68.7101C215.957 68.1846 216.545 67.7005 217.286 67.2579C218.028 66.8152 218.765 66.4951 219.496 66.2972C220.902 65.9168 222.033 65.9737 222.888 66.4683C223.738 66.949 224.353 67.9018 224.731 69.3267L226.421 75.6971L224.417 76.2393L223.963 74.5248C223.866 75.1861 223.596 75.7581 223.151 76.2414C222.707 76.7245 222.112 77.0669 221.366 77.2687ZM221.384 75.6306C222.144 75.4251 222.706 74.9858 223.07 74.3127C223.434 73.6396 223.507 72.8939 223.29 72.0756L223.138 71.5042L222.442 71.6925C221.415 71.9704 220.62 72.2384 220.055 72.497C219.505 72.7517 219.135 73.0334 218.945 73.3417C218.766 73.632 218.731 73.9819 218.839 74.391C218.982 74.9271 219.28 75.3152 219.736 75.5547C220.188 75.7804 220.737 75.8057 221.384 75.6306ZM229.357 74.903L226.616 64.5752L228.684 64.0158L229.173 65.857C229.381 64.4851 230.311 63.5002 231.961 62.9025L232.646 62.6718L233.277 64.4518L232.024 64.927C230.202 65.6166 229.523 66.8359 229.986 68.5856L231.509 74.3208L229.357 74.903ZM241.057 71.942C240.157 72.1853 239.306 72.1887 238.504 71.952C237.713 71.6972 237.022 71.2189 236.429 70.5174C235.836 69.816 235.393 68.915 235.101 67.8145C234.809 66.7141 234.748 65.7174 234.918 64.8246C235.085 63.9174 235.448 63.154 236.007 62.5339C236.566 61.9139 237.302 61.4804 238.217 61.233C238.99 61.0239 239.724 61.0066 240.419 61.1815C241.113 61.3567 241.686 61.6934 242.135 62.1919L240.466 55.9065L242.597 55.33L246.555 70.2505L244.467 70.8155L243.99 69.0164C243.859 69.717 243.531 70.3275 243.005 70.8479C242.495 71.3641 241.845 71.7287 241.057 71.942ZM241.168 70.1426C242.04 69.9068 242.659 69.3992 243.025 68.6195C243.391 67.8401 243.415 66.8507 243.097 65.6515C242.779 64.4522 242.271 63.6143 241.571 63.1383C240.868 62.6479 240.081 62.5206 239.209 62.7564C238.323 62.9962 237.697 63.5058 237.33 64.2855C236.961 65.0507 236.935 66.0331 237.253 67.2324C237.571 68.4317 238.081 69.2766 238.785 69.7667C239.487 70.2571 240.282 70.3823 241.168 70.1426Z" fill="#D5D5E0"/>
<path d="M172.805 152.739L171.997 149.696C176.708 147.826 177.845 144.467 177.012 141.326C176.162 138.12 173.954 136.122 169.122 136.483L165.042 136.781C162.369 136.978 161.695 136.81 161.322 135.403C160.958 134.029 161.674 133.169 164.478 132.41C167.706 131.536 168.85 132.033 169.458 134.323L169.553 134.683L174.379 133.378L174.31 133.116C173.33 129.419 170.675 127.051 166.097 127.448L165.256 124.275L160.723 125.501L161.538 128.577C156.877 130.504 155.726 133.936 156.515 136.914C157.418 140.316 159.743 141.966 164.107 141.557L168.137 141.203C171.341 140.897 171.806 141.332 172.197 142.805C172.587 144.277 172.05 145.018 169.278 145.768C165.333 146.836 164.27 146.387 163.628 143.966L163.541 143.639L158.748 144.936L158.86 145.361C159.946 149.451 162.733 151.397 167.439 150.825L168.272 153.965L172.805 152.739ZM189.701 145.011C195.212 143.52 198.146 140.482 197.018 136.229C196.159 132.99 193.764 131.604 190.556 132.156L190.504 131.96C193.287 130.856 194.057 128.754 193.371 126.17C192.331 122.244 188.671 121.095 183.519 122.489C177.91 124.006 175.394 127.563 176.547 131.914L176.643 132.274L181.436 130.977L181.358 130.683C180.829 128.687 181.683 127.825 184.585 127.039C186.868 126.422 188.263 126.675 188.723 128.409C189.192 130.176 188.546 130.771 186.59 131.301L182.514 132.404L183.572 136.395L188.17 135.151C190.289 134.578 191.315 134.756 191.888 136.915C192.426 138.944 191.178 139.772 188.504 140.496C185.015 141.44 184.109 141.054 183.58 139.058L183.406 138.404L178.613 139.701L178.804 140.421C179.957 144.772 183.115 146.793 189.701 145.011ZM203.813 146.032C206.585 145.282 207.809 143.443 207.038 140.531L205.362 134.216L199.232 135.875L200.768 141.666L203.377 140.96L203.533 141.549C203.758 142.4 203.517 142.676 202.832 142.861L201.332 143.267L202.183 146.473L203.813 146.032ZM218.361 137.256C224.295 135.651 227.164 132.63 226.027 128.344C225.177 125.138 222.64 124.141 220.356 124.093L220.304 123.897C222.263 122.981 223.271 120.85 222.585 118.265C221.665 114.797 218.308 113.075 212.406 114.672C206.504 116.269 204.448 119.456 205.368 122.924C206.054 125.508 207.98 126.845 210.13 126.649L210.182 126.846C208.195 128.05 206.525 130.185 207.376 133.391C208.512 137.677 212.459 138.853 218.361 137.256ZM214.871 123.964C212.034 124.732 210.921 124.226 210.478 122.558C210.036 120.889 210.749 119.89 213.586 119.122C216.39 118.363 217.503 118.869 217.946 120.537C218.388 122.206 217.675 123.205 214.871 123.964ZM217.221 132.831C213.667 133.793 212.619 133.129 212.115 131.232C211.612 129.334 212.201 128.263 215.755 127.301C219.277 126.349 220.35 126.97 220.854 128.867C221.357 130.765 220.743 131.878 217.221 132.831ZM247.326 129.068L246.155 124.651L237.808 126.91L234.304 127.928C234.026 126.881 235.18 125.832 236.757 124.529L239.668 122.199C242.167 120.155 244.329 117.501 243.322 113.706C242.273 109.747 239.176 107.429 233.405 108.991C226.916 110.746 225.235 114.953 226.364 119.206L226.502 119.73L231.394 118.406L231.246 117.85C230.621 115.495 231.039 114.435 234.202 113.579C237.104 112.794 238.056 113.483 238.472 115.053C238.854 116.493 238.36 117.398 236.68 118.834L233.374 121.658C230.732 123.95 228.331 126.494 229.459 130.747L230.24 133.691L247.326 129.068ZM260.13 125.954C265.967 124.375 268.286 120.732 267.115 116.315C266.012 112.16 262.908 110.335 258.114 111.632C254.821 112.523 253.421 114.094 252.856 115.79L252.693 115.834L252.19 113.936C251.366 110.828 251.716 109.12 255.01 108.229C257.52 107.55 258.738 107.922 259.163 109.525L259.215 109.721L264.4 108.318L264.33 108.057C263.203 103.803 259.458 101.941 254.404 103.309C247.948 105.056 245.686 109.84 247.553 116.874C249.601 124.596 253.152 127.842 260.13 125.954ZM258.946 121.225C255.849 122.063 254.679 121.608 254.176 119.711C253.681 117.846 254.468 116.861 257.566 116.023C260.664 115.185 261.8 115.649 262.295 117.514C262.799 119.411 262.044 120.387 258.946 121.225ZM277.75 120.836L276.214 115.045L270.084 116.704L271.62 122.495L277.75 120.836ZM289.639 117.97C295.835 116.293 297.943 111.725 295.964 104.266C293.899 96.479 290.435 93.5593 283.457 95.4474C277.62 97.0268 275.301 100.67 276.472 105.087C277.574 109.242 280.679 111.067 285.44 109.779C288.701 108.896 290.134 107.316 290.73 105.612L290.893 105.568L291.396 107.465C292.299 110.868 291.92 112.338 288.725 113.203C286.312 113.856 285.127 113.475 284.693 111.839L284.641 111.643L279.457 113.046L279.509 113.242C280.628 117.462 284.487 119.364 289.639 117.97ZM286.053 105.37C282.923 106.217 281.786 105.753 281.292 103.888C280.788 101.99 281.543 101.015 284.673 100.168C287.738 99.3383 288.907 99.7934 289.411 101.691C289.906 103.556 289.118 104.54 286.053 105.37ZM312.074 111.899C318.335 110.205 320.677 104.802 318.864 97.9645C317.059 91.1592 312.348 87.6299 306.087 89.324C299.794 91.0268 297.462 96.4619 299.266 103.267C301.08 110.105 305.781 113.602 312.074 111.899ZM310.816 107.155C307.458 108.064 305.863 107.058 304.484 101.855C303.103 96.6535 303.987 94.9766 307.346 94.0678C310.672 93.1679 312.266 94.1742 313.646 99.3762C315.026 104.578 314.142 106.255 310.816 107.155Z" fill="#E4E4F0"/>
<mask id="mask1_20_636" style="mask-type:luminance" maskUnits="userSpaceOnUse" x="174" y="201" width="45" height="63">
<path d="M204.437 201.803L174.416 209.956L188.697 263.973L218.718 255.82L204.437 201.803Z" fill="white"/>
</mask>
<g mask="url(#mask1_20_636)">
<path d="M189.582 229.829C190.217 229.657 190.597 229 190.428 228.363C190.259 227.723 189.607 227.346 188.972 227.519L186.665 228.146C186.03 228.318 185.377 227.941 185.208 227.302C185.039 226.662 185.419 226.008 186.054 225.835L188.361 225.208C190.266 224.691 192.23 225.823 192.736 227.736C193.24 229.646 192.099 231.625 190.194 232.143L189.04 232.456L190.292 237.194C193.061 237.02 195.663 238.812 196.401 241.605C196.746 242.91 196.609 244.225 196.134 245.394L203.109 243.499C202.121 242.728 201.355 241.658 201.01 240.353C200.272 237.563 201.641 234.689 204.125 233.436L202.873 228.698L201.719 229.012C199.814 229.529 197.849 228.394 197.344 226.484C196.839 224.571 197.981 222.595 199.886 222.077L202.194 221.45C202.828 221.278 203.48 221.652 203.649 222.292C203.818 222.931 203.439 223.589 202.804 223.761L200.497 224.388C199.862 224.56 199.483 225.218 199.652 225.857C199.82 226.494 200.473 226.871 201.107 226.698L210.331 224.193L209.72 221.882C209.045 219.328 206.434 217.819 203.887 218.511L183.138 224.148C180.591 224.84 179.073 227.47 179.748 230.025L180.359 232.335L189.582 229.829Z" fill="#E4E4F0"/>
<path d="M205.183 228.097L210.945 226.533L212.165 231.148L206.404 232.713L205.183 228.097ZM191.567 246.641C193.474 246.124 194.612 244.147 194.107 242.24C193.602 240.329 191.642 239.197 189.736 239.715L182.825 241.592L183.435 243.899C184.109 246.451 186.719 247.958 189.265 247.267L191.567 246.641ZM180.993 234.666L186.755 233.101L187.975 237.717L182.214 239.281L180.993 234.666ZM205.865 235.336C203.958 235.853 202.82 237.827 203.325 239.737C203.829 241.645 205.79 242.779 207.696 242.262L209.999 241.637C212.545 240.945 214.061 238.318 213.386 235.767L212.776 233.459L205.865 235.336Z" fill="#E4E4F0"/>
</g>
<path d="M199.399 294.579L198.337 294.294L198.964 292.299L196.987 292.927L196.707 291.873L198.748 291.43L197.214 290.004L197.978 289.225L199.429 290.859L199.863 288.715L200.929 289.015L200.287 291.013L202.275 290.367L202.554 291.421L200.517 291.879L202.062 293.286L201.28 294.055L199.843 292.417L199.399 294.579ZM205.89 292.823L204.827 292.538L205.454 290.543L203.478 291.171L203.198 290.117L205.239 289.674L203.703 288.248L204.468 287.469L205.92 289.103L206.352 286.959L207.419 287.259L206.778 289.257L208.765 288.611L209.045 289.665L207.008 290.123L208.553 291.53L207.77 292.299L206.334 290.661L205.89 292.823ZM212.379 291.067L211.317 290.782L211.944 288.788L209.967 289.415L209.688 288.362L211.729 287.918L210.194 286.492L210.958 285.713L212.41 287.347L212.843 285.203L213.909 285.503L213.268 287.501L215.255 286.856L215.534 287.909L213.498 288.367L215.043 289.774L214.26 290.543L212.823 288.906L212.379 291.067ZM218.87 289.311L217.808 289.026L218.435 287.032L216.458 287.659L216.178 286.606L218.219 286.162L216.685 284.736L217.448 283.958L218.9 285.591L219.333 283.448L220.4 283.747L219.758 285.745L221.746 285.1L222.025 286.153L219.988 286.611L221.533 288.018L220.751 288.787L219.314 287.149L218.87 289.311ZM229.602 291.759L231.881 281.584L226.688 282.989L226.355 281.734L233.216 279.877L233.511 280.988L231.242 291.316L229.602 291.759ZM240.981 288.82C240.3 289.004 239.626 289.079 238.958 289.043C238.288 288.997 237.698 288.842 237.186 288.579L237.396 287.284C237.944 287.528 238.48 287.672 239.007 287.715C239.532 287.758 240.064 287.707 240.601 287.562C241.291 287.375 241.774 287.085 242.049 286.691C242.334 286.294 242.403 285.816 242.255 285.258C242.107 284.7 241.815 284.336 241.379 284.165C240.952 283.992 240.399 283.997 239.718 284.181L238.15 284.606L237.817 283.35L239.241 282.965C239.845 282.801 240.279 282.519 240.542 282.118C240.816 281.714 240.881 281.243 240.738 280.704C240.608 280.213 240.345 279.882 239.95 279.71C239.552 279.529 239.051 279.52 238.447 279.684C237.421 279.961 236.623 280.574 236.052 281.523L235.232 280.523C235.52 280.022 235.929 279.587 236.458 279.217C236.994 278.835 237.583 278.557 238.225 278.383C239.242 278.108 240.096 278.129 240.787 278.448C241.475 278.756 241.929 279.325 242.148 280.152C242.297 280.71 242.283 281.24 242.108 281.741C241.942 282.239 241.635 282.652 241.187 282.98C241.833 282.97 242.377 283.142 242.82 283.497C243.261 283.841 243.566 284.331 243.735 284.966C243.972 285.861 243.844 286.654 243.349 287.344C242.864 288.032 242.074 288.524 240.981 288.82ZM250.651 286.065L250.103 284.001L245.543 285.235L245.247 284.124L248.209 275.821L249.431 275.49L251.251 282.345L252.732 281.944L253.066 283.199L251.585 283.6L252.132 285.664L250.651 286.065ZM249.769 282.746L248.57 278.229L246.69 283.579L249.769 282.746ZM255.723 284.693L255.39 283.437L257.691 282.814L255.783 275.628L254.284 277.24L253.385 276.292L255.755 273.779L256.805 273.495L259.173 282.414L261.331 281.83L261.664 283.085L255.723 284.693Z" fill="#D5D5E0"/>
<path d="M317.941 255.967L317.19 266.962C317.19 266.962 316.766 266.16 316.545 265.649C313.433 261.793 309.849 261.042 309.849 261.042L315.884 271.68L320.002 270.565L321.938 254.878L317.939 255.961L317.941 255.967ZM324.95 269.224L328.682 268.213L327.196 253.459L323.415 254.484L324.95 269.224Z" fill="#E4E4F0"/>
<path d="M316.147 264.863L313.19 258.792C313.19 258.792 312.252 257.555 310.778 257.954C309.299 258.355 305.001 259.519 305.001 259.519C305.001 259.519 312.964 259.779 316.147 264.863ZM333.556 256.088C333.339 255.269 333.825 254.483 335.685 253.979C336.891 253.652 338.514 254.192 338.514 254.192L338.29 250.91C338.29 250.91 336.34 250.693 334.608 251.161C330.681 252.225 329.171 254.726 329.826 257.194C331.009 261.653 336.026 259.646 336.636 261.939C336.738 262.327 336.677 263.318 334.521 263.902C332.36 264.487 330.716 264.048 330.716 264.048L330.868 267.216C330.868 267.216 332.466 267.667 335.142 266.943C337.818 266.218 340.981 263.131 340.187 260.142C339.234 256.546 333.981 257.692 333.556 256.088ZM347.62 247.948L343.692 249.011L341.31 264.793L345.02 263.789L345.252 261.565L349.925 260.299L350.861 262.207L354.259 261.287L347.62 247.948ZM345.568 258.583L346.187 252.7L348.67 257.744L345.568 258.583Z" fill="#E4E4F0"/>
<path d="M404.374 -21H-15.2833C-17.2581 -21 -18.859 -18.7251 -18.859 -15.919V349.919C-18.859 352.725 -17.2581 355 -15.2833 355H404.374C406.349 355 407.95 352.725 407.95 349.919V-15.919C407.95 -18.7251 406.349 -21 404.374 -21Z" stroke="#9747FF" stroke-dasharray="10 5"/>
</g>
<defs>
<radialGradient id="paint0_radial_20_636" cx="0" cy="0" r="1" gradientUnits="userSpaceOnUse" gradientTransform="translate(6.66029 56.3232) rotate(40.0836) scale(353.713 279.48)">
<stop stop-color="#232336" stop-opacity="0.7"/>
<stop offset="0.0001" stop-color="#232336" stop-opacity="0.7"/>
<stop offset="1" stop-color="#232336" stop-opacity="0.1"/>
</radialGradient>
<linearGradient id="paint1_linear_20_636" x1="-11.2126" y1="49.9216" x2="232.206" y2="159.553" gradientUnits="userSpaceOnUse">
<stop stop-color="white" stop-opacity="0.32"/>
<stop offset="1" stop-color="#BEBEBE" stop-opacity="0.23"/>
</linearGradient>
<linearGradient id="paint2_linear_20_636" x1="212.894" y1="21.6276" x2="291.729" y2="312.593" gradientUnits="userSpaceOnUse">
<stop stop-color="#FF9933"/>
<stop offset="1" stop-color="#894D12"/>
</linearGradient>
<clipPath id="clip0_20_636">
<rect width="535" height="335" fill="white"/>
</clipPath>
</defs>
</svg>
