<svg width="24" height="25" viewBox="0 0 24 25" fill="none" xmlns="http://www.w3.org/2000/svg">
<g id="mdi:paint-outline">
<path id="Vector" d="M12 22.5C10.6868 22.5 9.38642 22.2413 8.17317 21.7388C6.95991 21.2362 5.85752 20.4997 4.92893 19.5711C3.05357 17.6957 2 15.1522 2 12.5C2 9.84784 3.05357 7.3043 4.92893 5.42893C6.8043 3.55357 9.34784 2.5 12 2.5C17.5 2.5 22 6.5 22 11.5C22 13.0913 21.3679 14.6174 20.2426 15.7426C19.1174 16.8679 17.5913 17.5 16 17.5H14.2C13.9 17.5 13.7 17.7 13.7 18C13.7 18.1 13.8 18.2 13.8 18.3C14.2 18.8 14.4 19.4 14.4 20C14.5 21.4 13.4 22.5 12 22.5ZM12 4.5C9.87827 4.5 7.84344 5.34285 6.34315 6.84315C4.84285 8.34344 4 10.3783 4 12.5C4 14.6217 4.84285 16.6566 6.34315 18.1569C7.84344 19.6571 9.87827 20.5 12 20.5C12.3 20.5 12.5 20.3 12.5 20C12.5 19.8 12.4 19.7 12.4 19.6C12 19.1 11.8 18.6 11.8 18C11.8 16.6 12.9 15.5 14.3 15.5H16C17.0609 15.5 18.0783 15.0786 18.8284 14.3284C19.5786 13.5783 20 12.5609 20 11.5C20 7.6 16.4 4.5 12 4.5ZM6.5 10.5C7.3 10.5 8 11.2 8 12C8 12.8 7.3 13.5 6.5 13.5C5.7 13.5 5 12.8 5 12C5 11.2 5.7 10.5 6.5 10.5ZM9.5 6.5C10.3 6.5 11 7.2 11 8C11 8.8 10.3 9.5 9.5 9.5C8.7 9.5 8 8.8 8 8C8 7.2 8.7 6.5 9.5 6.5ZM14.5 6.5C15.3 6.5 16 7.2 16 8C16 8.8 15.3 9.5 14.5 9.5C13.7 9.5 13 8.8 13 8C13 7.2 13.7 6.5 14.5 6.5ZM17.5 10.5C18.3 10.5 19 11.2 19 12C19 12.8 18.3 13.5 17.5 13.5C16.7 13.5 16 12.8 16 12C16 11.2 16.7 10.5 17.5 10.5Z" fill="#F2F2FA"/>
</g>
</svg>
