<svg width="33" height="45" viewBox="0 0 33 45" fill="none" xmlns="http://www.w3.org/2000/svg">
<path fill-rule="evenodd" clip-rule="evenodd" d="M18.2832 37.8088C20.2827 35.8093 21.8921 33.4258 22.9871 30.782C24.0424 28.2345 24.6246 25.4378 24.6246 22.5002C24.6246 19.5625 24.042 16.7654 22.9871 14.2184C21.8921 11.5746 20.2827 9.19139 18.2832 7.19148C14.3651 3.27343 8.95269 0.850098 2.9745 0.850098H0V6.79909H2.9745C5.09596 6.79909 7.12361 7.22287 8.97642 7.99013C10.9033 8.78842 12.6335 9.95391 14.0771 11.3975C15.5211 12.8415 16.6866 14.5713 17.4845 16.4982C18.2518 18.3511 18.6756 20.3783 18.6756 22.5002C18.6756 24.6216 18.2522 26.6493 17.4845 28.5021C16.6862 30.429 15.5208 32.1592 14.0771 33.6028C11.2362 36.4437 7.3105 38.2012 2.9745 38.2012H0V44.1502H2.9745C5.91213 44.1502 8.70923 43.5677 11.2567 42.5124C13.9005 41.4174 16.2836 39.8084 18.2832 37.8085V37.8088Z" fill="#FF9933"/>
<path fill-rule="evenodd" clip-rule="evenodd" d="M22.2615 35.6626C21.4402 36.8653 20.5098 37.9859 19.4852 39.0108C18.6522 39.8438 17.7557 40.6143 16.8034 41.3148C20.3473 43.6447 24.5884 45.0003 29.1463 45.0003H32.971V37.3515H29.1463C26.6617 37.3515 24.3194 36.7412 22.2618 35.6626H22.2615Z" fill="white"/>
<path fill-rule="evenodd" clip-rule="evenodd" d="M22.2615 9.33778C24.3194 8.25917 26.6613 7.64887 29.146 7.64887H32.9706V0H29.146C24.5888 0 20.3477 1.35566 16.8041 3.68481C17.7554 4.38528 18.6515 5.15582 19.4848 5.98951C20.5094 7.01411 21.4398 8.13506 22.2611 9.33778H22.2615Z" fill="white"/>
<path fill-rule="evenodd" clip-rule="evenodd" d="M14.295 22.5002C14.295 20.3331 14.7593 18.2748 15.5934 16.4187C14.9068 14.998 13.9844 13.7081 12.8755 12.5995C12.0542 11.7782 11.134 11.0592 10.1346 10.4627C7.92555 13.9439 6.64618 18.0725 6.64618 22.5002C6.64618 26.9271 7.92519 31.055 10.1335 34.5358C11.1351 33.939 12.056 33.2206 12.8759 32.4012C13.9848 31.2923 14.9072 30.0027 15.5938 28.582C14.7597 26.7259 14.2954 24.6676 14.2954 22.5005L14.295 22.5002Z" fill="white"/>
</svg>
