<svg width="307" height="62" viewBox="0 0 307 62" fill="none" xmlns="http://www.w3.org/2000/svg">
<path d="M86.7546 28.7105H83.4963C83.437 28.2881 83.3148 27.9144 83.1332 27.5825C82.9481 27.2541 82.7143 26.9715 82.4241 26.7371C82.1379 26.5068 81.806 26.3287 81.4324 26.203C81.0587 26.0808 80.6539 26.0179 80.2168 26.0179C79.4273 26.0179 78.7398 26.2136 78.1529 26.6008C77.5695 26.9921 77.1154 27.5543 76.791 28.2981C76.4697 29.0384 76.3092 29.9396 76.3092 30.9942C76.3092 32.0805 76.4697 32.9953 76.7946 33.732C77.123 34.4723 77.5771 35.0311 78.16 35.4082C78.7468 35.7854 79.4243 35.974 80.1927 35.974C80.6257 35.974 81.024 35.9147 81.3941 35.803C81.7643 35.6879 82.0927 35.5199 82.3824 35.3001C82.6685 35.0803 82.9064 34.8113 83.0985 34.4935C83.2906 34.1756 83.4234 33.8125 83.4968 33.4072L86.7551 33.4213C86.6712 34.1198 86.462 34.7937 86.1265 35.4399C85.7911 36.0897 85.344 36.666 84.7817 37.176C84.216 37.6824 83.5486 38.0842 82.7701 38.3809C81.9946 38.6741 81.1181 38.8245 80.1404 38.8245C78.7815 38.8245 77.5665 38.5172 76.4978 37.8991C75.4292 37.2846 74.5878 36.3939 73.9692 35.2307C73.3511 34.0645 73.0439 32.6533 73.0439 30.9942C73.0439 29.3316 73.3547 27.9209 73.9798 26.7547C74.6049 25.588 75.4533 24.6973 76.5255 24.0863C77.5977 23.4717 78.8027 23.168 80.1404 23.168C81.024 23.168 81.8448 23.2902 82.5991 23.5381C83.357 23.786 84.0279 24.1491 84.6143 24.6209C85.1976 25.0956 85.6759 25.6755 86.046 26.3599C86.4162 27.0444 86.6536 27.8269 86.7551 28.7105H86.7546Z" fill="white"/>
<path d="M105.17 23.3742H108.39V33.2719C108.39 34.3823 108.129 35.3569 107.598 36.1877C107.071 37.0226 106.333 37.6723 105.383 38.1365C104.437 38.5977 103.334 38.8315 102.073 38.8315C100.808 38.8315 99.7015 38.5977 98.755 38.1365C97.8086 37.6723 97.0718 37.0226 96.5443 36.1877C96.0207 35.3564 95.7552 34.3823 95.7552 33.2719V23.3742H98.9788V32.9958C98.9788 33.5792 99.1046 34.0926 99.3631 34.5463C99.618 34.9969 99.9776 35.3494 100.446 35.6079C100.911 35.8664 101.455 35.9956 102.073 35.9956C102.698 35.9956 103.243 35.8664 103.708 35.6079C104.172 35.3494 104.532 34.9969 104.787 34.5463C105.042 34.0921 105.171 33.5787 105.171 32.9958V23.3742H105.17Z" fill="white"/>
<path d="M117.722 38.6153V23.3742H123.735C124.885 23.3742 125.869 23.5803 126.687 23.9887C127.5 24.3971 128.125 24.9769 128.551 25.7242C128.981 26.468 129.198 27.3446 129.198 28.354C129.198 29.3668 128.978 30.2328 128.541 30.9625C128.104 31.6887 127.476 32.2444 126.648 32.6322C125.824 33.0199 124.825 33.212 123.651 33.212H119.628V30.6241H123.131C123.746 30.6241 124.259 30.5366 124.664 30.3691C125.073 30.2016 125.376 29.9462 125.576 29.6112C125.778 29.2723 125.876 28.8533 125.876 28.354C125.876 27.8475 125.778 27.4216 125.576 27.0725C125.376 26.7265 125.069 26.4615 124.66 26.28C124.252 26.1019 123.738 26.0109 123.117 26.0109H120.945V38.6153H117.721H117.722ZM125.953 31.6792L129.739 38.6153H126.184L122.479 31.6792H125.954H125.953Z" fill="white"/>
<path d="M138.159 38.6153V23.3742H144.173C145.322 23.3742 146.306 23.5803 147.124 23.9887C147.937 24.3971 148.563 24.9769 148.988 25.7242C149.418 26.468 149.635 27.3446 149.635 28.354C149.635 29.3668 149.415 30.2328 148.978 30.9625C148.541 31.6887 147.913 32.2444 147.085 32.6322C146.261 33.0199 145.262 33.212 144.089 33.212H140.065V30.6241H143.568C144.183 30.6241 144.696 30.5366 145.101 30.3691C145.51 30.2016 145.814 29.9462 146.013 29.6112C146.215 29.2723 146.313 28.8533 146.313 28.354C146.313 27.8475 146.215 27.4216 146.013 27.0725C145.814 26.7265 145.506 26.4615 145.097 26.28C144.689 26.1019 144.176 26.0109 143.554 26.0109H141.382V38.6153H138.158H138.159ZM146.39 31.6792L150.176 38.6153H146.621L142.916 31.6792H146.391H146.39Z" fill="white"/>
<path d="M160.011 23.3742L163.94 29.7163H164.059L167.988 23.3742H170.16L165.368 30.9947L170.16 38.6153H167.988L164.059 32.3953H163.94L160.011 38.6153H157.839L162.749 30.9947L157.839 23.3742H160.011Z" fill="white"/>
<path d="M192.709 28.1382H190.861C190.753 27.6071 190.564 27.1394 190.292 26.7376C190.023 26.3363 189.695 25.9973 189.31 25.7247C188.926 25.4492 188.5 25.2394 188.035 25.1032C187.568 24.9633 187.082 24.8934 186.575 24.8934C185.654 24.8934 184.819 25.1273 184.071 25.592C183.324 26.0597 182.734 26.7477 182.294 27.6559C181.854 28.5606 181.633 29.6746 181.633 30.9947C181.633 32.3149 181.853 33.4288 182.294 34.337C182.734 35.2453 183.324 35.9333 184.071 36.3975C184.819 36.8657 185.654 37.096 186.575 37.096C187.082 37.096 187.567 37.0261 188.035 36.8898C188.5 36.75 188.926 36.5443 189.31 36.2682C189.694 35.9921 190.023 35.6537 190.292 35.2483C190.564 34.843 190.753 34.3788 190.861 33.8512H192.709C192.569 34.6297 192.318 35.3283 191.947 35.9428C191.581 36.5574 191.127 37.0814 190.578 37.5109C190.034 37.9369 189.423 38.2653 188.745 38.4886C188.067 38.7118 187.344 38.824 186.576 38.824C185.277 38.824 184.121 38.5062 183.108 37.8705C182.095 37.2348 181.299 36.3336 180.719 35.1603C180.139 33.9905 179.849 32.6005 179.849 30.9937C179.849 29.3874 180.139 27.9974 180.719 26.8271C181.299 25.6574 182.095 24.7526 183.108 24.117C184.121 23.4848 185.276 23.167 186.576 23.167C187.344 23.167 188.067 23.2786 188.745 23.5024C189.422 23.7257 190.034 24.0506 190.578 24.48C191.127 24.9095 191.581 25.43 191.947 26.0411C192.318 26.6556 192.569 27.3542 192.709 28.1367V28.1382Z" fill="white"/>
<path d="M203.795 38.6153V23.3742H205.643V30.1634H213.77V23.3742H215.614V38.6153H213.77V31.7979H205.643V38.6153H203.795Z" fill="white"/>
<path d="M228.038 38.6153H226.103L231.702 23.3742H233.605L239.2 38.6153H237.265L232.711 25.7876H232.592L228.038 38.6153ZM228.754 32.6609H236.553V34.2988H228.754V32.6609Z" fill="white"/>
<path d="M261.78 23.3742V38.6153H259.992L251.687 26.6501H251.541V38.6153H249.693V23.3742H251.481L259.814 35.371H259.964V23.3742H261.78Z" fill="white"/>
<path d="M283.998 28.1382C283.834 27.6388 283.62 27.1882 283.355 26.7864C283.089 26.3881 282.775 26.0461 282.408 25.763C282.045 25.4798 281.633 25.2671 281.172 25.1167C280.711 24.9664 280.205 24.8934 279.653 24.8934C278.752 24.8934 277.928 25.1273 277.191 25.592C276.451 26.0597 275.864 26.7477 275.427 27.6559C274.991 28.5606 274.77 29.6746 274.77 30.9947C274.77 32.3149 274.994 33.4288 275.434 34.337C275.874 35.2453 276.475 35.9333 277.226 36.3975C277.98 36.8657 278.828 37.096 279.772 37.096C280.645 37.096 281.417 36.9109 282.084 36.5338C282.75 36.1601 283.271 35.6295 283.645 34.9451C284.018 34.2571 284.207 33.4469 284.207 32.5145L284.773 32.6332H280.187V30.9952H285.992V32.6332C285.992 33.8869 285.726 34.9803 285.192 35.9056C284.661 36.8345 283.924 37.5542 282.991 38.0606C282.055 38.5705 280.983 38.8255 279.771 38.8255C278.423 38.8255 277.239 38.5077 276.219 37.872C275.199 37.2363 274.407 36.3351 273.837 35.1618C273.268 33.9921 272.986 32.602 272.986 30.9952C272.986 29.7903 273.146 28.704 273.474 27.7404C273.799 26.7763 274.257 25.9521 274.854 25.2746C275.448 24.5937 276.153 24.0732 276.967 23.7101C277.781 23.3505 278.675 23.169 279.653 23.169C280.456 23.169 281.207 23.2877 281.905 23.5286C282.6 23.7694 283.222 24.1084 283.77 24.5484C284.319 24.9885 284.776 25.5125 285.142 26.12C285.512 26.7275 285.764 27.3984 285.904 28.1387H283.997L283.998 28.1382Z" fill="white"/>
<path d="M297.256 38.6153V23.3742H306.456V25.0121H299.104V30.1634H305.98V31.7979H299.104V36.9773H306.574V38.6153H297.256Z" fill="white"/>
<path fill-rule="evenodd" clip-rule="evenodd" d="M25.1902 52.0922C27.9451 49.3373 30.1624 46.0533 31.6711 42.4107C33.125 38.9009 33.9272 35.0477 33.9272 31.0002C33.9272 26.9528 33.1245 23.0991 31.6711 19.5898C30.1624 15.9472 27.9451 12.6637 25.1902 9.90829C19.7919 4.51008 12.3348 1.17127 4.0982 1.17127H0V9.36767H4.0982C7.0211 9.36767 9.81475 9.95154 12.3675 11.0087C15.0224 12.1085 17.4061 13.7143 19.3951 15.7033C21.3847 17.6928 22.9904 20.0761 24.0898 22.7309C25.1469 25.2837 25.7308 28.0768 25.7308 31.0002C25.7308 33.9232 25.1474 36.7168 24.0898 39.2696C22.9899 41.9244 21.3841 44.3082 19.3951 46.2972C15.481 50.2113 10.0722 52.6328 4.0982 52.6328H0V60.8292H4.0982C8.1456 60.8292 11.9994 60.0266 15.5092 58.5727C19.1517 57.064 22.4352 54.8471 25.1902 52.0917V52.0922Z" fill="#FF9933"/>
<path fill-rule="evenodd" clip-rule="evenodd" d="M30.6713 49.1351C29.5398 50.7922 28.2579 52.3361 26.8462 53.7483C25.6986 54.8959 24.4635 55.9576 23.1514 56.9226C28.0341 60.1327 33.8774 62.0005 40.1572 62.0005H45.4267V51.4621H40.1572C36.7339 51.4621 33.5067 50.6212 30.6719 49.1351H30.6713Z" fill="white"/>
<path fill-rule="evenodd" clip-rule="evenodd" d="M30.6714 12.8654C33.5067 11.3793 36.7334 10.5384 40.1567 10.5384H45.4262V0H40.1567C33.8779 0 28.0346 1.8678 23.1524 5.07686C24.463 6.04194 25.6976 7.10358 26.8457 8.25222C28.2574 9.66388 29.5393 11.2083 30.6708 12.8654H30.6714Z" fill="white"/>
<path fill-rule="evenodd" clip-rule="evenodd" d="M19.6954 31.0003C19.6954 28.0145 20.3351 25.1786 21.4842 22.6213C20.5382 20.664 19.2674 18.8867 17.7396 17.3594C16.608 16.2278 15.3402 15.2371 13.9632 14.4154C10.9196 19.2116 9.15694 24.9 9.15694 31.0003C9.15694 37.0995 10.9191 42.7869 13.9617 47.5826C15.3417 46.7604 16.6105 45.7707 17.7401 44.6416C19.2679 43.1138 20.5387 41.337 21.4847 39.3797C20.3356 36.8224 19.6959 33.9865 19.6959 31.0008L19.6954 31.0003Z" fill="white"/>
</svg>
