<svg width="24" height="25" viewBox="0 0 24 25" fill="none" xmlns="http://www.w3.org/2000/svg">
<g id="clarity:language-solid">
<path id="Vector" d="M7.33334 11.5L6.66667 13.5667H8.00001L7.33334 11.5Z" fill="#F2F2FA"/>
<path id="Vector_2" d="M20.2 2.5H9.53334V5.83333H12.2V7.16667H3.53334C2.40001 7.16667 1.53334 8.03333 1.53334 9.16667V16.5C1.53334 17.6333 2.40001 18.5 3.53334 18.5H4.20001V21.9L8.40001 18.5H12.8667V13.8333H20.2C21.3333 13.8333 22.2 12.9667 22.2 11.8333V4.5C22.2 3.36667 21.3333 2.5 20.2 2.5ZM8.73334 15.7667L8.40001 14.7H6.33334L5.93334 15.7667H4.33334L6.53334 9.83333H8.13334L10.3333 15.7667H8.73334ZM18.8667 10.5V11.8333C18 11.8333 17.0667 11.5667 16.2667 11.1667C15.4667 11.5667 14.5333 11.7667 13.6 11.8333L13.5333 10.5C14 10.5 14.4667 10.4333 14.9333 10.3C14.3333 9.7 13.9333 8.96667 13.7333 8.16667H15.1333C15.3333 8.76667 15.7333 9.23333 16.2 9.63333C16.9333 9.03333 17.4 8.16667 17.4667 7.16667H13.4667V5.83333H15.4667V4.5H16.8V5.83333H19L19.0667 6.5C19.1333 7.9 18.6 9.3 17.6 10.3C18.0667 10.4333 18.4667 10.5 18.8667 10.5Z" fill="#F2F2FA"/>
</g>
</svg>
