<svg width="24" height="25" viewBox="0 0 24 25" fill="none" xmlns="http://www.w3.org/2000/svg">
<g id="bxs:notification">
<path id="Vector" d="M18 9.5C19.6569 9.5 21 8.15685 21 6.5C21 4.84315 19.6569 3.5 18 3.5C16.3431 3.5 15 4.84315 15 6.5C15 8.15685 16.3431 9.5 18 9.5Z" fill="#F2F2FA"/>
<path id="Vector_2" d="M13 6.5C13 5.788 13.153 5.113 13.422 4.5H6C4.897 4.5 4 5.397 4 6.5V18.5C4 19.603 4.897 20.5 6 20.5H18C19.103 20.5 20 19.603 20 18.5V11.078C19.3698 11.3559 18.6887 11.4997 18 11.5C16.6739 11.5 15.4021 10.9732 14.4645 10.0355C13.5268 9.09785 13 7.82608 13 6.5Z" fill="#F2F2FA"/>
</g>
</svg>
