<svg width="24" height="25" viewBox="0 0 24 25" fill="none" xmlns="http://www.w3.org/2000/svg">
<g id="solar:password-bold">
<path id="Vector" fill-rule="evenodd" clip-rule="evenodd" d="M3.172 5.672C2 6.843 2 8.729 2 12.5C2 16.271 2 18.157 3.172 19.328C4.343 20.5 6.229 20.5 10 20.5H14C17.771 20.5 19.657 20.5 20.828 19.328C22 18.157 22 16.271 22 12.5C22 8.729 22 6.843 20.828 5.672C19.657 4.5 17.771 4.5 14 4.5H10C6.229 4.5 4.343 4.5 3.172 5.672ZM12.75 10.5C12.75 10.3011 12.671 10.1103 12.5303 9.96967C12.3897 9.82902 12.1989 9.75 12 9.75C11.8011 9.75 11.6103 9.82902 11.4697 9.96967C11.329 10.1103 11.25 10.3011 11.25 10.5V11.201L10.643 10.851C10.4714 10.7596 10.271 10.7384 10.0841 10.7919C9.89719 10.8454 9.73836 10.9694 9.64109 11.1378C9.54382 11.3061 9.51573 11.5056 9.56272 11.6943C9.60972 11.8829 9.72813 12.046 9.893 12.149L10.5 12.499L9.893 12.85C9.72061 12.9495 9.59479 13.1133 9.54322 13.3055C9.49164 13.4978 9.51854 13.7026 9.618 13.875C9.71746 14.0474 9.88132 14.1732 10.0735 14.2248C10.2658 14.2764 10.4706 14.2495 10.643 14.15L11.25 13.799V14.5C11.25 14.6989 11.329 14.8897 11.4697 15.0303C11.6103 15.171 11.8011 15.25 12 15.25C12.1989 15.25 12.3897 15.171 12.5303 15.0303C12.671 14.8897 12.75 14.6989 12.75 14.5V13.8L13.357 14.15C13.5294 14.2495 13.7342 14.2764 13.9265 14.2248C14.1187 14.1732 14.2825 14.0474 14.382 13.875C14.4815 13.7026 14.5084 13.4978 14.4568 13.3055C14.4052 13.1133 14.2794 12.9495 14.107 12.85L13.5 12.5L14.107 12.15C14.2794 12.0505 14.4052 11.8867 14.4568 11.6945C14.5084 11.5022 14.4815 11.2974 14.382 11.125C14.2825 10.9526 14.1187 10.8268 13.9265 10.7752C13.7342 10.7236 13.5294 10.7505 13.357 10.85L12.75 11.2V10.5ZM6.733 9.75C6.93191 9.75 7.12268 9.82902 7.26333 9.96967C7.40398 10.1103 7.483 10.3011 7.483 10.5V11.2L8.089 10.85C8.26139 10.7505 8.46623 10.7236 8.65845 10.7752C8.85068 10.8268 9.01454 10.9526 9.114 11.125C9.21346 11.2974 9.24036 11.5022 9.18878 11.6945C9.13721 11.8867 9.01139 12.0505 8.839 12.15L8.232 12.5L8.839 12.85C8.92436 12.8992 8.99918 12.9648 9.0592 13.043C9.11922 13.1211 9.16325 13.2104 9.18878 13.3055C9.21432 13.4007 9.22086 13.5 9.20803 13.5977C9.1952 13.6954 9.16325 13.7896 9.114 13.875C9.06475 13.9604 8.99918 14.0352 8.92102 14.0952C8.84285 14.1552 8.75363 14.1992 8.65845 14.2248C8.56327 14.2503 8.464 14.2569 8.36629 14.244C8.26858 14.2312 8.17436 14.1992 8.089 14.15L7.483 13.8V14.5C7.483 14.6989 7.40398 14.8897 7.26333 15.0303C7.12268 15.171 6.93191 15.25 6.733 15.25C6.53409 15.25 6.34332 15.171 6.20267 15.0303C6.06202 14.8897 5.983 14.6989 5.983 14.5V13.799L5.375 14.149C5.2034 14.2404 5.00302 14.2616 4.8161 14.2081C4.62919 14.1546 4.47036 14.0306 4.37309 13.8622C4.27582 13.6939 4.24773 13.4944 4.29472 13.3057C4.34172 13.1171 4.46013 12.954 4.625 12.851L5.232 12.5L4.625 12.15C4.53964 12.1008 4.46482 12.0352 4.4048 11.957C4.34478 11.8789 4.30075 11.7896 4.27522 11.6945C4.24968 11.5993 4.24314 11.5 4.25597 11.4023C4.2688 11.3046 4.30075 11.2104 4.35 11.125C4.39925 11.0396 4.46482 10.9648 4.54298 10.9048C4.62115 10.8448 4.71037 10.8008 4.80555 10.7752C4.90073 10.7497 5 10.7431 5.09771 10.756C5.19542 10.7688 5.28964 10.8008 5.375 10.85L5.983 11.201V10.5C5.983 10.3011 6.06202 10.1103 6.20267 9.96967C6.34332 9.82902 6.53409 9.75 6.733 9.75ZM18.018 10.5C18.018 10.3011 17.939 10.1103 17.7983 9.96967C17.6577 9.82902 17.4669 9.75 17.268 9.75C17.0691 9.75 16.8783 9.82902 16.7377 9.96967C16.597 10.1103 16.518 10.3011 16.518 10.5V11.201L15.911 10.851C15.7394 10.7596 15.539 10.7384 15.3521 10.7919C15.1652 10.8454 15.0064 10.9694 14.9091 11.1378C14.8118 11.3061 14.7837 11.5056 14.8307 11.6943C14.8777 11.8829 14.9961 12.046 15.161 12.149L15.768 12.499L15.16 12.85C14.9876 12.9495 14.8618 13.1133 14.8102 13.3055C14.7586 13.4978 14.7855 13.7026 14.885 13.875C14.9845 14.0474 15.1483 14.1732 15.3405 14.2248C15.5328 14.2764 15.7376 14.2495 15.91 14.15L16.518 13.799V14.5C16.518 14.6989 16.597 14.8897 16.7377 15.0303C16.8783 15.171 17.0691 15.25 17.268 15.25C17.4669 15.25 17.6577 15.171 17.7983 15.0303C17.939 14.8897 18.018 14.6989 18.018 14.5V13.8L18.625 14.15C18.7974 14.2495 19.0022 14.2764 19.1945 14.2248C19.3867 14.1732 19.5505 14.0474 19.65 13.875C19.7495 13.7026 19.7764 13.4978 19.7248 13.3055C19.6732 13.1133 19.5474 12.9495 19.375 12.85L18.768 12.5L19.375 12.15C19.5474 12.0505 19.6732 11.8867 19.7248 11.6945C19.7764 11.5022 19.7495 11.2974 19.65 11.125C19.5505 10.9526 19.3867 10.8268 19.1945 10.7752C19.0022 10.7236 18.7974 10.7505 18.625 10.85L18.018 11.2V10.5Z" fill="#F2F2FA"/>
</g>
</svg>
