<svg width="24" height="24" viewBox="0 0 24 24" fill="none" xmlns="http://www.w3.org/2000/svg">
<g id="Group">
<path id="Vector" d="M8.3988 9.08395L10.8 1.19995L13.2024 9.08515L20.4 11.7168L13.2576 14.5536L10.8 22.8L8.3424 14.5536L1.2 11.7168L8.3988 9.08395Z" stroke="#222222" stroke-width="2.4" stroke-linejoin="round"/>
<path id="Vector_2" d="M20.502 16.2888C20.499 16.264 20.4869 16.2411 20.4681 16.2247C20.4492 16.2083 20.425 16.1995 20.4 16.2C20.375 16.1995 20.3507 16.2083 20.3319 16.2247C20.313 16.2411 20.301 16.264 20.298 16.2888C20.0592 18.6816 19.884 19.3812 17.4924 19.6068C17.4675 19.6086 17.4441 19.6197 17.427 19.6379C17.4099 19.6562 17.4002 19.6802 17.4 19.7052C17.4 19.7568 17.4396 19.7988 17.4924 19.8036C19.8504 20.0256 20.0556 20.8788 20.298 23.3112C20.3012 23.3359 20.3134 23.3585 20.3322 23.3749C20.351 23.3913 20.3751 23.4002 20.4 23.4C20.4528 23.4 20.496 23.3616 20.502 23.3112C20.7444 20.8788 20.9484 20.0256 23.3076 19.8036C23.3325 19.8018 23.3559 19.7906 23.373 19.7724C23.3901 19.7542 23.3998 19.7302 23.4 19.7052C23.3998 19.6802 23.3901 19.6562 23.373 19.6379C23.3559 19.6197 23.3325 19.6086 23.3076 19.6068C20.916 19.3812 20.7396 18.6828 20.502 16.2888Z" fill="#222222" stroke="#222222" stroke-width="1.2"/>
<path id="Vector_3" d="M10.8 24C10.272 24 9.804 23.652 9.648 23.148L7.356 15.456L0.756 12.828C0.3 12.648 0 12.204 0 11.7C0 11.196 0.324 10.764 0.792 10.584L7.428 8.16L9.648 0.852C9.804 0.348 10.272 0 10.8 0C11.328 0 11.796 0.348 11.952 0.852L14.184 8.16L20.82 10.584C21.288 10.752 21.6 11.196 21.612 11.7C21.624 12.204 21.312 12.648 20.856 12.828L14.256 15.444L11.964 23.136C11.808 23.64 11.34 23.988 10.812 23.988L10.8 24ZM4.572 11.76L8.784 13.44C9.12 13.572 9.384 13.86 9.492 14.208L10.8 18.6L12.108 14.208C12.216 13.86 12.468 13.572 12.816 13.44L17.028 11.76L12.78 10.212C12.432 10.08 12.156 9.792 12.048 9.432L10.8 5.316L9.552 9.432C9.444 9.792 9.168 10.08 8.82 10.212L4.572 11.76ZM20.4 24C20.04 24 19.74 23.724 19.704 23.364C19.464 21.024 19.368 20.58 17.436 20.4C17.2625 20.3836 17.1013 20.3033 16.9838 20.1747C16.8662 20.046 16.8007 19.8783 16.8 19.704C16.8 19.344 17.076 19.044 17.436 19.008C19.368 18.828 19.476 18.528 19.704 16.224C19.7262 16.0551 19.8091 15.9001 19.9371 15.7878C20.0652 15.6755 20.2297 15.6136 20.4 15.6136C20.5703 15.6136 20.7348 15.6755 20.8629 15.7878C20.9909 15.9001 21.0738 16.0551 21.096 16.224C21.324 18.528 21.432 18.828 23.364 19.008C23.724 19.044 24 19.344 24 19.704C24 20.064 23.736 20.364 23.376 20.4C21.444 20.58 21.336 21.024 21.096 23.364C21.06 23.724 20.76 23.988 20.4 23.988V24Z" fill="#222222"/>
</g>
</svg>
