<svg width="24" height="25" viewBox="0 0 24 25" fill="none" xmlns="http://www.w3.org/2000/svg">
<g id="uiw:verification">
<path id="Vector" d="M3.2724 4.49999C2.3688 4.49999 1.6368 5.21639 1.6368 6.10079V18.9C1.6368 19.7844 2.3688 20.5008 3.2724 20.5008H20.7276C21.6312 20.5008 22.3632 19.7844 22.3632 18.9V6.10079C22.3632 5.21639 21.6312 4.49999 20.7276 4.49999H3.2724ZM20.7276 2.90039C22.5348 2.90039 24 4.33319 24 6.10079V18.9C24 20.6676 22.5348 22.1004 20.7276 22.1004H3.2724C1.4652 22.1004 0 20.6676 0 18.9V6.10079C0 4.33319 1.4652 2.90039 3.2724 2.90039H20.7276ZM9.8004 16.26H4.8C4.69369 16.2587 4.58816 16.2784 4.48947 16.318C4.39078 16.3575 4.30086 16.4162 4.22484 16.4905C4.14883 16.5648 4.08822 16.6534 4.04648 16.7512C4.00475 16.849 3.9827 16.9541 3.9816 17.0604C3.9816 17.502 4.3476 17.8608 4.8 17.8608H9.8004C9.90662 17.8619 10.012 17.8421 10.1106 17.8025C10.2091 17.7628 10.2989 17.7042 10.3748 17.6299C10.4507 17.5555 10.5112 17.467 10.5528 17.3693C10.5945 17.2716 10.6165 17.1666 10.6176 17.0604C10.6165 16.9542 10.5945 16.8492 10.5528 16.7515C10.5112 16.6538 10.4507 16.5653 10.3748 16.4909C10.2989 16.4166 10.2091 16.358 10.1106 16.3183C10.012 16.2787 9.90662 16.2589 9.8004 16.26ZM16.5 6.89999C14.6712 6.89999 13.182 8.32919 13.182 10.1004C13.182 11.028 13.59 11.862 14.2428 12.4464C13.0068 13.176 12.1824 14.49 12.1824 15.9912C12.1824 16.4196 12.2496 16.8408 12.3804 17.2428C12.5184 17.6628 12.9792 17.8956 13.4088 17.7612C13.5102 17.7308 13.6045 17.6805 13.6863 17.6133C13.768 17.5461 13.8355 17.4633 13.8849 17.3696C13.9343 17.276 13.9645 17.1735 13.9738 17.0681C13.9832 16.9626 13.9714 16.8564 13.9392 16.7556C13.859 16.5087 13.8185 16.2507 13.8192 15.9912C13.8192 14.5812 15.0156 13.4316 16.5 13.4316C17.9844 13.4316 19.182 14.5812 19.182 15.9912C19.182 16.1988 19.1568 16.4016 19.1064 16.5984C19.0811 16.7012 19.0765 16.8081 19.0929 16.9128C19.1092 17.0174 19.1463 17.1177 19.2017 17.208C19.2572 17.2982 19.3301 17.3765 19.4161 17.4383C19.5021 17.5001 19.5996 17.5442 19.7028 17.568C19.9115 17.6203 20.1324 17.5885 20.3179 17.4794C20.5033 17.3703 20.6384 17.1926 20.694 16.9848C20.7768 16.6608 20.8176 16.3284 20.8176 15.9912C20.8176 14.49 19.9932 13.176 18.7572 12.444C19.41 11.862 19.818 11.028 19.818 10.1004C19.818 8.32919 18.33 6.89999 16.5 6.89999ZM9.8004 12.06H4.8C4.69369 12.0587 4.58816 12.0784 4.48947 12.118C4.39078 12.1575 4.30086 12.2162 4.22484 12.2905C4.14883 12.3648 4.08822 12.4534 4.04648 12.5512C4.00475 12.649 3.9827 12.7541 3.9816 12.8604C3.9816 13.302 4.3476 13.6608 4.8 13.6608H9.8004C9.90662 13.6619 10.012 13.6421 10.1106 13.6025C10.2091 13.5628 10.2989 13.5042 10.3748 13.4299C10.4507 13.3555 10.5112 13.267 10.5528 13.1693C10.5945 13.0716 10.6165 12.9666 10.6176 12.8604C10.6165 12.7542 10.5945 12.6492 10.5528 12.5515C10.5112 12.4538 10.4507 12.3653 10.3748 12.2909C10.2989 12.2166 10.2091 12.158 10.1106 12.1183C10.012 12.0787 9.90662 12.0589 9.8004 12.06ZM16.5 8.50079C17.4324 8.50079 18.1824 9.22079 18.1824 10.1004C18.1824 10.9812 17.4324 11.7 16.5 11.7C15.5676 11.7 14.8176 10.98 14.8176 10.1004C14.8176 9.21959 15.5676 8.50079 16.5 8.50079ZM9.8004 7.85999H4.8C4.69369 7.85872 4.58816 7.87843 4.48947 7.91798C4.39078 7.95754 4.30086 8.01616 4.22484 8.0905C4.14883 8.16484 4.08822 8.25344 4.04648 8.35123C4.00475 8.44902 3.9827 8.55407 3.9816 8.66039C3.9816 9.10199 4.3476 9.46079 4.8 9.46079H9.8004C9.90662 9.4619 10.012 9.44208 10.1106 9.40245C10.2091 9.36283 10.2989 9.30418 10.3748 9.22985C10.4507 9.15553 10.5112 9.06698 10.5528 8.96927C10.5945 8.87156 10.6165 8.76661 10.6176 8.66039C10.6165 8.55418 10.5945 8.44922 10.5528 8.35151C10.5112 8.2538 10.4507 8.16526 10.3748 8.09093C10.2989 8.0166 10.2091 7.95796 10.1106 7.91833C10.012 7.87871 9.90662 7.85888 9.8004 7.85999Z" fill="#F2F2FA"/>
</g>
</svg>
